<svg width="140" height="43" viewBox="0 0 140 43" fill="none" xmlns="http://www.w3.org/2000/svg">
<path d="M117.208 16.8309V12.3678H109.035L105.442 12.304C102.371 12.304 100.271 14.3978 99.4476 16.8309V12.3678H90.2944V41.3069H99.4476V35.1009V25.4961C99.4476 22.6106 101.704 20.2732 104.49 20.2732H108.058V41.3069H117.211V35.1009V25.4961C117.211 22.6106 119.468 20.2732 122.254 20.2732H126.798V12.3678L123.206 12.304C120.134 12.3011 118.037 14.3978 117.208 16.8309ZM52.0716 12.9739L47.1604 29.6982L42.2492 12.9739H33.096L43.0388 41.913H43.5736H50.7472H51.282L61.2248 12.9739H52.0716ZM14.6692 12.9739V11.0454C14.6692 9.3547 15.9908 7.9859 17.6232 7.9859H23.4024V0.0485992H15.4644C9.9708 0.0485992 5.516 4.6625 5.516 10.3523V12.9768H0.165199V20.6473H5.516V41.9159H14.672V20.6473H23.4024V41.9159H32.5556V20.6473V12.9768H23.4024H14.6692V12.9739ZM73.9144 12.5853H72.8C65.3016 12.5853 59.2228 18.8812 59.2228 26.6474V28.2366C59.2228 36.0028 65.3016 42.2987 72.8 42.2987H75.278C80.4132 42.2987 84.8064 39.0159 86.6124 34.3672L78.5372 31.9254C78.5372 31.9254 77.5712 34.7906 74.2028 34.7906C70.4004 34.7906 68.3872 32.633 68.1212 30.1912H68.1184V30.1767C68.0988 29.9998 68.0904 29.82 68.0904 29.6402H78.4168H87.4944V26.6474C87.4944 18.8812 81.4156 12.5853 73.9144 12.5853ZM68.1016 24.0606C68.2108 21.4593 70.2772 19.3829 72.8168 19.3829H73.6904C76.23 19.3829 78.2964 21.4593 78.4056 24.0606H68.1016ZM134.21 30.7944C131.065 30.7944 128.517 33.4334 128.517 36.6901C128.517 39.9468 131.065 42.5858 134.21 42.5858C137.354 42.5858 139.902 39.9468 139.902 36.6901C139.899 33.4334 137.354 30.7944 134.21 30.7944Z" fill="#BAFF29"/>
</svg>
