<svg width="60" height="56" viewBox="0 0 60 56" fill="none" xmlns="http://www.w3.org/2000/svg">
<path d="M8.24 0.852501C3.7984 0.852501 0.572498 3.5142 0.572498 7.175C0.572498 10.8486 3.8752 13.6275 8.24 13.6275C12.6816 13.6275 15.9075 10.9144 15.9075 7.1C15.7027 3.4264 12.5408 0.852501 8.24 0.852501ZM1.84 16.2C1.136 16.2 0.559998 16.776 0.559998 17.48V54.6C0.559998 55.304 1.136 55.88 1.84 55.88H14.64C15.344 55.88 15.92 55.304 15.92 54.6V17.48C15.92 16.776 15.344 16.2 14.64 16.2H1.84ZM21.04 16.2C20.336 16.2 19.76 16.776 19.76 17.48V54.6C19.76 55.304 20.336 55.88 21.04 55.88H32.56C33.2666 55.88 33.84 55.3066 33.84 54.6V35.4V35.08V34.76C33.84 31.7264 36.1704 29.2554 39.14 29.025C39.2936 28.9994 39.4464 29 39.6 29C39.7536 29 39.9064 28.9994 40.06 29.025C43.0296 29.2554 45.36 31.7264 45.36 34.76V54.6C45.36 55.3066 45.9334 55.88 46.64 55.88H58.16C58.864 55.88 59.44 55.304 59.44 54.6V32.84C59.44 24.5584 54.9972 16.2 45.09 16.2C40.5844 16.2 37.1808 17.9411 35.12 19.3875V17.48C35.12 16.776 34.544 16.2 33.84 16.2H21.04Z" fill="#BAFF29"/>
</svg>
